<!DOCTYPE svg PUBLIC "-//W3C//DTD SVG 1.1//EN" "http://www.w3.org/Graphics/SVG/1.1/DTD/svg11.dtd">
<!-- Uploaded to: SVG Repo, www.svgrepo.com, Transformed by: SVG Repo Mixer Tools -->
<svg version="1.1" id="Uploaded to svgrepo.com" xmlns="http://www.w3.org/2000/svg" xmlns:xlink="http://www.w3.org/1999/xlink" width="256px" height="256px" viewBox="-3.2 -3.2 38.40 38.40" xml:space="preserve" fill="#9ef01a" stroke="#9ef01a" stroke-width="0.00032" transform="rotate(0)">
<g id="SVGRepo_bgCarrier" stroke-width="0"/>
<g id="SVGRepo_tracerCarrier" stroke-linecap="round" stroke-linejoin="round"/>
<g id="SVGRepo_iconCarrier"> <style type="text/css"> .afiado_een{fill:;} </style> <path class="afiado_een" d="M12,24h4v4H4v-4h4v-4h4V24z M28,24v-4h-4v4H28z M4,16v4h4v-4H4z M20,28h4v-4h-4V28z M24,12v4h4V4h-4v4 h-4v4H24z M20,16v-4h-4V8h4V4H8v4H4v4h4v4h4v4h4v4h4v-4h4v-4H20z"/> </g>
</svg>